<?xml version="1.0" encoding="UTF-8" standalone="no"?>
<svg
   xmlns:dc="http://purl.org/dc/elements/1.1/"
   xmlns:cc="http://creativecommons.org/ns#"
   xmlns:rdf="http://www.w3.org/1999/02/22-rdf-syntax-ns#"
   xmlns:svg="http://www.w3.org/2000/svg"
   xmlns="http://www.w3.org/2000/svg"
   viewBox="0 0 211.68668 230.87466"
   height="230.87466"
   width="211.68668"
   xml:space="preserve"
   id="svg2"
   version="1.1"><metadata
     id="metadata8"><rdf:RDF><cc:Work
         rdf:about=""><dc:format>image/svg+xml</dc:format><dc:type
           rdf:resource="http://purl.org/dc/dcmitype/StillImage" /></cc:Work></rdf:RDF></metadata><defs
     id="defs6" /><g
     transform="matrix(1.3333333,0,0,-1.3333333,0,230.87467)"
     id="g10"><g
       transform="translate(52.923,86.578)"
       id="g12"><g
         id="g14"><g
           id="g16"><g
             id="g18"><path
               id="path20"
               style="fill:none;stroke:#808080;stroke-width:0.19925;stroke-linecap:butt;stroke-linejoin:miter;stroke-miterlimit:10;stroke-dasharray:none;stroke-opacity:1"
               d="M 0,0 H 85.04042 M 0,28.3468 H 85.04042 M 0,56.68365 H 85.04042 M 0,0 V 56.69362 M 28.3468,0 V 56.69362 M 56.69362,0 V 56.69362 M 85.03047,0 v 56.69362" /></g><g
             id="g22"><path
               id="path24"
               style="fill:none;stroke:#000000;stroke-width:0.3985;stroke-linecap:butt;stroke-linejoin:miter;stroke-miterlimit:10;stroke-dasharray:none;stroke-opacity:1"
               d="M 12.45346,0 C 12.45346,6.87794 6.87794,12.45346 0,12.45346 -6.87794,12.45346 -12.45346,6.87794 -12.45346,0 c 0,-6.87794 5.57552,-12.45346 12.45346,-12.45346 6.87794,0 12.45346,5.57552 12.45346,12.45346 z" /><g
               transform="translate(-4.458,-1.176)"
               id="g26"><g
                 id="g28"><g
                   transform="translate(-48.465,-85.402)"
                   id="g30"><text
                     id="text34"
                     style="font-variant:normal;font-weight:normal;font-size:9.96259975px;font-family:CMMI10;-inkscape-font-specification:CMMI10;writing-mode:lr-tb;fill:#000000;fill-opacity:1;fill-rule:nonzero;stroke:none"
                     transform="matrix(1,0,0,-1,48.465,85.402)"><tspan
                       id="tspan32"
                       y="0"
                       x="0">q</tspan></text>
<text
                     id="text38"
                     style="font-variant:normal;font-weight:normal;font-size:6.97380018px;font-family:CMR7;-inkscape-font-specification:CMR7;writing-mode:lr-tb;fill:#000000;fill-opacity:1;fill-rule:nonzero;stroke:none"
                     transform="matrix(1,0,0,-1,52.912,83.907)"><tspan
                       id="tspan36"
                       y="0"
                       x="0">0</tspan></text>
<g
                     transform="translate(48.465,85.402)"
                     id="g40" /></g></g><g
                 transform="translate(4.458,1.176)"
                 id="g42" /></g></g><g
             id="g44"><path
               id="path46"
               style="fill:none;stroke:#000000;stroke-width:0.3985;stroke-linecap:butt;stroke-linejoin:miter;stroke-miterlimit:10;stroke-dasharray:none;stroke-opacity:1"
               d="M -25.52126,0 H -13.111" /><g
               transform="translate(-13.111)"
               id="g48"><g
                 id="g50"><path
                   id="path52"
                   style="fill:none;stroke:#000000;stroke-width:0.31878999;stroke-linecap:round;stroke-linejoin:round;stroke-miterlimit:10;stroke-dasharray:none;stroke-opacity:1"
                   d="M -1.19551,1.59401 C -1.09587,0.99626 0,0.09961 0.29886,0 0,-0.09961 -1.09587,-0.99626 -1.19551,-1.59401" /></g></g><g
               id="g54"><g
                 transform="translate(-49.602,-3.064)"
                 id="g56"><g
                   id="g58"><g
                     transform="translate(-3.321,-83.514)"
                     id="g60"><text
                       id="text64"
                       style="font-variant:normal;font-weight:normal;font-size:9.96259975px;font-family:CMR10;-inkscape-font-specification:CMR10;writing-mode:lr-tb;fill:#000000;fill-opacity:1;fill-rule:nonzero;stroke:none"
                       transform="matrix(1,0,0,-1,3.321,83.514)"><tspan
                         id="tspan62"
                         y="0"
                         x="0 3.9292495 7.8037047 12.785005 16.687355">start</tspan></text>
<g
                       transform="translate(3.321,83.514)"
                       id="g66" /></g></g><g
                   transform="translate(49.602,3.064)"
                   id="g68" /></g></g></g><g
             id="g70"><path
               id="path72"
               style="fill:none;stroke:#000000;stroke-width:0.3985;stroke-linecap:butt;stroke-linejoin:miter;stroke-miterlimit:10;stroke-dasharray:none;stroke-opacity:1"
               d="m 58.69395,46.24048 c 0,6.87794 -5.57553,12.45347 -12.45347,12.45347 -6.87796,0 -12.45348,-5.57553 -12.45348,-12.45347 0,-6.87796 5.57552,-12.45348 12.45348,-12.45348 6.87794,0 12.45347,5.57552 12.45347,12.45348 z" /><g
               transform="translate(41.782,45.064)"
               id="g74"><g
                 id="g76"><g
                   transform="translate(-94.705,-131.642)"
                   id="g78"><text
                     id="text82"
                     style="font-variant:normal;font-weight:normal;font-size:9.96259975px;font-family:CMMI10;-inkscape-font-specification:CMMI10;writing-mode:lr-tb;fill:#000000;fill-opacity:1;fill-rule:nonzero;stroke:none"
                     transform="matrix(1,0,0,-1,94.705,131.642)"><tspan
                       id="tspan80"
                       y="0"
                       x="0">q</tspan></text>
<text
                     id="text86"
                     style="font-variant:normal;font-weight:normal;font-size:6.97380018px;font-family:CMR7;-inkscape-font-specification:CMR7;writing-mode:lr-tb;fill:#000000;fill-opacity:1;fill-rule:nonzero;stroke:none"
                     transform="matrix(1,0,0,-1,99.152,130.147)"><tspan
                       id="tspan84"
                       y="0"
                       x="0">1</tspan></text>
<g
                     transform="translate(94.705,131.642)"
                     id="g88" /></g></g><g
                 transform="translate(-41.782,-45.064)"
                 id="g90" /></g></g><g
             id="g92"><path
               id="path94"
               style="fill:none;stroke:#000000;stroke-width:0.3985;stroke-linecap:butt;stroke-linejoin:miter;stroke-miterlimit:10;stroke-dasharray:none;stroke-opacity:1"
               d="m 58.69395,-46.24048 c 0,6.87796 -5.57553,12.45348 -12.45347,12.45348 -6.87796,0 -12.45348,-5.57552 -12.45348,-12.45348 0,-6.87794 5.57552,-12.45347 12.45348,-12.45347 6.87794,0 12.45347,5.57553 12.45347,12.45347 z" /><g
               transform="translate(41.782,-47.416)"
               id="g96"><g
                 id="g98"><g
                   transform="translate(-94.705,-39.162)"
                   id="g100"><text
                     id="text104"
                     style="font-variant:normal;font-weight:normal;font-size:9.96259975px;font-family:CMMI10;-inkscape-font-specification:CMMI10;writing-mode:lr-tb;fill:#000000;fill-opacity:1;fill-rule:nonzero;stroke:none"
                     transform="matrix(1,0,0,-1,94.705,39.162)"><tspan
                       id="tspan102"
                       y="0"
                       x="0">q</tspan></text>
<text
                     id="text108"
                     style="font-variant:normal;font-weight:normal;font-size:6.97380018px;font-family:CMR7;-inkscape-font-specification:CMR7;writing-mode:lr-tb;fill:#000000;fill-opacity:1;fill-rule:nonzero;stroke:none"
                     transform="matrix(1,0,0,-1,99.152,37.668)"><tspan
                       id="tspan106"
                       y="0"
                       x="0">2</tspan></text>
<g
                     transform="translate(94.705,39.162)"
                     id="g110" /></g></g><g
                 transform="translate(-41.782,47.416)"
                 id="g112" /></g></g><g
             id="g114"><g
               id="g116"><path
                 id="path118"
                 style="fill:none;stroke:#000000;stroke-width:1.39478004;stroke-linecap:butt;stroke-linejoin:miter;stroke-miterlimit:10;stroke-dasharray:none;stroke-opacity:1"
                 d="m 105.14577,-0.21133 c 0,6.87794 -5.57552,12.45346 -12.45348,12.45346 -6.87794,0 -12.45347,-5.57552 -12.45347,-12.45346 0,-6.87795 5.57553,-12.45348 12.45347,-12.45348 6.87796,0 12.45348,5.57553 12.45348,12.45348 z" /><g
                 id="g120"><path
                   id="path122"
                   style="fill:none;stroke:#ffffff;stroke-width:0.59776002;stroke-linecap:butt;stroke-linejoin:miter;stroke-miterlimit:10;stroke-dasharray:none;stroke-opacity:1"
                   d="m 105.14577,-0.21133 c 0,6.87794 -5.57552,12.45346 -12.45348,12.45346 -6.87794,0 -12.45347,-5.57552 -12.45347,-12.45346 0,-6.87795 5.57553,-12.45348 12.45347,-12.45348 6.87796,0 12.45348,5.57553 12.45348,12.45348 z" /></g></g><g
               transform="translate(88.233,-1.387)"
               id="g124"><g
                 id="g126"><g
                   transform="translate(-141.156,-85.191)"
                   id="g128"><text
                     id="text132"
                     style="font-variant:normal;font-weight:normal;font-size:9.96259975px;font-family:CMMI10;-inkscape-font-specification:CMMI10;writing-mode:lr-tb;fill:#000000;fill-opacity:1;fill-rule:nonzero;stroke:none"
                     transform="matrix(1,0,0,-1,141.156,85.19)"><tspan
                       id="tspan130"
                       y="0"
                       x="0">q</tspan></text>
<text
                     id="text136"
                     style="font-variant:normal;font-weight:normal;font-size:6.97380018px;font-family:CMR7;-inkscape-font-specification:CMR7;writing-mode:lr-tb;fill:#000000;fill-opacity:1;fill-rule:nonzero;stroke:none"
                     transform="matrix(1,0,0,-1,145.603,83.696)"><tspan
                       id="tspan134"
                       y="0"
                       x="0">3</tspan></text>
<g
                     transform="translate(141.156,85.19)"
                     id="g138" /></g></g><g
                 transform="translate(-88.233,1.388)"
                 id="g140" /></g></g><g
             id="g142"><path
               id="path144"
               style="fill:none;stroke:#000000;stroke-width:0.3985;stroke-linecap:butt;stroke-linejoin:miter;stroke-miterlimit:10;stroke-dasharray:none;stroke-opacity:1"
               d="M 8.9474,8.94682 36.96921,36.96959" /><g
               transform="matrix(0.7071,0.7071,-0.7071,0.7071,36.96921,36.96959)"
               id="g146"><g
                 id="g148"><path
                   id="path150"
                   style="fill:none;stroke:#000000;stroke-width:0.31878999;stroke-linecap:round;stroke-linejoin:round;stroke-miterlimit:10;stroke-dasharray:none;stroke-opacity:1"
                   d="M -1.19551,1.59401 C -1.09587,0.99626 0,0.09961 0.29886,0 0,-0.09961 -1.09587,-0.99626 -1.19551,-1.59401" /></g></g><g
               id="g152"><g
                 transform="translate(20.629,19.91)"
                 id="g154"><g
                   id="g156"><g
                     transform="translate(-73.552,-106.488)"
                     id="g158"><text
                       id="text162"
                       style="font-variant:normal;font-weight:normal;font-size:9.96259975px;font-family:CMR10;-inkscape-font-specification:CMR10;writing-mode:lr-tb;fill:#000000;fill-opacity:1;fill-rule:nonzero;stroke:none"
                       transform="matrix(1,0,0,-1,73.552,106.488)"><tspan
                         id="tspan160"
                         y="0"
                         x="0">0</tspan></text>
<g
                       transform="translate(73.552,106.488)"
                       id="g164" /></g></g><g
                   transform="translate(-20.629,-19.91)"
                   id="g166" /></g></g></g><g
             id="g168"><path
               id="path170"
               style="fill:none;stroke:#000000;stroke-width:0.3985;stroke-linecap:butt;stroke-linejoin:miter;stroke-miterlimit:10;stroke-dasharray:none;stroke-opacity:1"
               d="M 8.9474,-8.94682 36.96921,-36.96959" /><g
               transform="matrix(0.7071,-0.7071,0.7071,0.7071,36.96921,-36.96959)"
               id="g172"><g
                 id="g174"><path
                   id="path176"
                   style="fill:none;stroke:#000000;stroke-width:0.31878999;stroke-linecap:round;stroke-linejoin:round;stroke-miterlimit:10;stroke-dasharray:none;stroke-opacity:1"
                   d="M -1.19551,1.59401 C -1.09587,0.99626 0,0.09961 0.29886,0 0,-0.09961 -1.09587,-0.99626 -1.19551,-1.59401" /></g></g><g
               id="g178"><g
                 transform="translate(20.629,-26.33)"
                 id="g180"><g
                   id="g182"><g
                     transform="translate(-73.552,-60.248)"
                     id="g184"><text
                       id="text188"
                       style="font-variant:normal;font-weight:normal;font-size:9.96259975px;font-family:CMR10;-inkscape-font-specification:CMR10;writing-mode:lr-tb;fill:#000000;fill-opacity:1;fill-rule:nonzero;stroke:none"
                       transform="matrix(1,0,0,-1,73.552,60.248)"><tspan
                         id="tspan186"
                         y="0"
                         x="0">1</tspan></text>
<g
                       transform="translate(73.552,60.248)"
                       id="g190" /></g></g><g
                   transform="translate(-20.629,26.33)"
                   id="g192" /></g></g></g><g
             id="g194"><path
               id="path196"
               style="fill:none;stroke:#000000;stroke-width:0.3985;stroke-linecap:butt;stroke-linejoin:miter;stroke-miterlimit:10;stroke-dasharray:none;stroke-opacity:1"
               d="M 55.18788,37.29364 83.20987,9.27087" /><g
               transform="matrix(0.7071,-0.7071,0.7071,0.7071,83.20987,9.27087)"
               id="g198"><g
                 id="g200"><path
                   id="path202"
                   style="fill:none;stroke:#000000;stroke-width:0.31878999;stroke-linecap:round;stroke-linejoin:round;stroke-miterlimit:10;stroke-dasharray:none;stroke-opacity:1"
                   d="M -1.19551,1.59401 C -1.09587,0.99626 0,0.09961 0.29886,0 0,-0.09961 -1.09587,-0.99626 -1.19551,-1.59401" /></g></g><g
               id="g204"><g
                 transform="translate(66.869,19.91)"
                 id="g206"><g
                   id="g208"><g
                     transform="translate(-119.792,-106.488)"
                     id="g210"><text
                       id="text214"
                       style="font-variant:normal;font-weight:normal;font-size:9.96259975px;font-family:CMR10;-inkscape-font-specification:CMR10;writing-mode:lr-tb;fill:#000000;fill-opacity:1;fill-rule:nonzero;stroke:none"
                       transform="matrix(1,0,0,-1,119.792,106.488)"><tspan
                         id="tspan212"
                         y="0"
                         x="0">1</tspan></text>
<g
                       transform="translate(119.792,106.488)"
                       id="g216" /></g></g><g
                   transform="translate(-66.869,-19.91)"
                   id="g218" /></g></g></g><g
             id="g220"><path
               id="path222"
               style="fill:none;stroke:#000000;stroke-width:0.3985;stroke-linecap:butt;stroke-linejoin:miter;stroke-miterlimit:10;stroke-dasharray:none;stroke-opacity:1"
               d="M 42.95952,58.48602 C 37.6601,78.2623 54.82085,78.2623 49.899,59.89375" /><g
               transform="matrix(-0.25932,-0.96782,0.96782,-0.25932,49.89902,59.89377)"
               id="g224"><g
                 id="g226"><path
                   id="path228"
                   style="fill:none;stroke:#000000;stroke-width:0.31878999;stroke-linecap:round;stroke-linejoin:round;stroke-miterlimit:10;stroke-dasharray:none;stroke-opacity:1"
                   d="M -1.19551,1.59401 C -1.09587,0.99626 0,0.09961 0.29886,0 0,-0.09961 -1.09587,-0.99626 -1.19551,-1.59401" /></g></g><g
               id="g230"><g
                 transform="translate(43.749,76.837)"
                 id="g232"><g
                   id="g234"><g
                     transform="translate(-96.672,-163.415)"
                     id="g236"><text
                       id="text240"
                       style="font-variant:normal;font-weight:normal;font-size:9.96259975px;font-family:CMR10;-inkscape-font-specification:CMR10;writing-mode:lr-tb;fill:#000000;fill-opacity:1;fill-rule:nonzero;stroke:none"
                       transform="matrix(1,0,0,-1,96.672,163.415)"><tspan
                         id="tspan238"
                         y="0"
                         x="0">0</tspan></text>
<g
                       transform="translate(96.672,163.415)"
                       id="g242" /></g></g><g
                   transform="translate(-43.749,-76.837)"
                   id="g244" /></g></g></g><g
             id="g246"><path
               id="path248"
               style="fill:none;stroke:#000000;stroke-width:0.3985;stroke-linecap:butt;stroke-linejoin:miter;stroke-miterlimit:10;stroke-dasharray:none;stroke-opacity:1"
               d="M 55.2321,-37.33032 83.1626,-9.65448" /><g
               transform="matrix(0.71065,0.70421,-0.70421,0.71065,83.1626,-9.65448)"
               id="g250"><g
                 id="g252"><path
                   id="path254"
                   style="fill:none;stroke:#000000;stroke-width:0.31878999;stroke-linecap:round;stroke-linejoin:round;stroke-miterlimit:10;stroke-dasharray:none;stroke-opacity:1"
                   d="M -1.19551,1.59401 C -1.09587,0.99626 0,0.09961 0.29886,0 0,-0.09961 -1.09587,-0.99626 -1.19551,-1.59401" /></g></g><g
               id="g256"><g
                 transform="translate(66.869,-26.541)"
                 id="g258"><g
                   id="g260"><g
                     transform="translate(-119.792,-60.037)"
                     id="g262"><text
                       id="text266"
                       style="font-variant:normal;font-weight:normal;font-size:9.96259975px;font-family:CMR10;-inkscape-font-specification:CMR10;writing-mode:lr-tb;fill:#000000;fill-opacity:1;fill-rule:nonzero;stroke:none"
                       transform="matrix(1,0,0,-1,119.792,60.037)"><tspan
                         id="tspan264"
                         y="0"
                         x="0">0</tspan></text>
<g
                       transform="translate(119.792,60.037)"
                       id="g268" /></g></g><g
                   transform="translate(-66.869,26.541)"
                   id="g270" /></g></g></g><g
             id="g272"><path
               id="path274"
               style="fill:none;stroke:#000000;stroke-width:0.3985;stroke-linecap:butt;stroke-linejoin:miter;stroke-miterlimit:10;stroke-dasharray:none;stroke-opacity:1"
               d="M 49.52142,-58.48602 C 54.82085,-78.2623 37.6601,-78.2623 42.58195,-59.89375" /><g
               transform="matrix(0.25932,0.96782,-0.96782,0.25932,42.58194,-59.89377)"
               id="g276"><g
                 id="g278"><path
                   id="path280"
                   style="fill:none;stroke:#000000;stroke-width:0.31878999;stroke-linecap:round;stroke-linejoin:round;stroke-miterlimit:10;stroke-dasharray:none;stroke-opacity:1"
                   d="M -1.19551,1.59401 C -1.09587,0.99626 0,0.09961 0.29886,0 0,-0.09961 -1.09587,-0.99626 -1.19551,-1.59401" /></g></g><g
               id="g282"><g
                 transform="translate(43.749,-83.257)"
                 id="g284"><g
                   id="g286"><g
                     transform="translate(-96.672,-3.321)"
                     id="g288"><text
                       id="text292"
                       style="font-variant:normal;font-weight:normal;font-size:9.96259975px;font-family:CMR10;-inkscape-font-specification:CMR10;writing-mode:lr-tb;fill:#000000;fill-opacity:1;fill-rule:nonzero;stroke:none"
                       transform="matrix(1,0,0,-1,96.672,3.321)"><tspan
                         id="tspan290"
                         y="0"
                         x="0">1</tspan></text>
<g
                       transform="translate(96.672,3.321)"
                       id="g294" /></g></g><g
                   transform="translate(-43.749,83.257)"
                   id="g296" /></g></g></g></g></g></g></g></svg>